<?xml version="1.0" encoding="UTF-8"?>
<svg id="_圖層_1" data-name="圖層 1" xmlns="http://www.w3.org/2000/svg" viewBox="0 0 35.14 18.72">
  <defs>
    <style>
      .cls-1 {
        fill: #a2b5ff;
      }
    </style>
  </defs>
  <path class="cls-1" d="M29.04,1.41c3.48-.46,6.19,2.04,6.1,5.6-.04,1.51-.75,2.71-1.75,3.72-1.77,1.78-3.94,2.79-6.23,3.45-1.3,.38-2.36,.91-3.25,2.07-1.36,1.77-3.24,2.51-5.42,2.47-2.57-.05-5.15-.07-7.72,0-2.67,.08-4.67-1.15-6.25-3.31C2.56,12.72,1.48,9.6,.67,6.37,.41,5.33,.15,4.29,.03,3.23c-.08-.65,0-1.36,.17-2C.41,.41,1.02,0,1.83,0c8.5,0,17.01,0,25.51,0,.89,0,1.39,.54,1.7,1.41Zm-2.73,11.45c2.48-.84,4.94-1.7,6.64-3.97,.37-.5,.65-1.21,.69-1.84,.16-2.51-1.65-4.32-4.02-4.16-.38,.03-.45,.22-.52,.57-.32,1.51-.61,3.04-1.05,4.51-.49,1.63-1.13,3.22-1.74,4.89Z"/>
</svg>