<?xml version="1.0" encoding="UTF-8"?>
<svg id="_圖層_1" data-name="圖層 1" xmlns="http://www.w3.org/2000/svg" viewBox="0 0 33.57 43.62">
  <defs>
    <style>
      .cls-1 {
        fill: #e8a47a;
      }
    </style>
  </defs>
  <path class="cls-1" d="M17.69,43.62c1.01-2.83,1.37-5.28,2.63-7.08,3.66-5.21,7.69-10.17,11.61-15.28,2.26,3.35,2.16,8.83-.26,13.34-2.8,5.22-7.15,8.18-13.99,9.01Z"/>
  <path class="cls-1" d="M15.41,43.39C4.11,42.59-3.25,30.81,1.43,20.93c4.55,7.64,12.42,12.8,13.98,22.46Z"/>
  <path class="cls-1" d="M26.02,11.21c4.19,5.3,4.2,6.83,.14,11.91-2.45,3.07-4.94,6.12-7.58,9.38-1.6-9.32,.24-14.48,7.44-21.29Z"/>
  <path class="cls-1" d="M7.47,11.31c6.99,6.15,8.59,10.48,7.57,21.32-1.26-1.53-2.27-2.73-3.25-3.95-1.58-1.95-3.14-3.92-4.71-5.88-3.78-4.71-3.71-6.82,.39-11.49Z"/>
  <path class="cls-1" d="M16.77,0c7.05,6.63,7,10.7-.07,16.55-7.06-6.28-7.07-10.34,.07-16.55Z"/>
</svg>